<svg xmlns="http://www.w3.org/2000/svg" width="17.73" height="18.5" viewBox="0 0 17.73 18.5">
    <defs>
        
    </defs>
    <g transform="translate(-10.659)">
        <g transform="translate(10.659)">
            <path class="a" d="M28.306,13.251a.388.388,0,0,0-.425-.127l-2.312.771a.386.386,0,0,0,.244.732l1.195-.4a9.511,9.511,0,0,1-7.1,3.48V10h2.7a.385.385,0,0,0,0-.771h-2.7V3.815a1.927,1.927,0,1,0-.771,0V9.234h-2.7a.385.385,0,1,0,0,.771h2.7v7.7a9.838,9.838,0,0,1-7.055-3.466l1.152.385a.386.386,0,0,0,.244-.732l-2.312-.771a.392.392,0,0,0-.427.13.385.385,0,0,0-.019.446,10.614,10.614,0,0,0,8.8,4.8,10.261,10.261,0,0,0,8.807-4.807A.387.387,0,0,0,28.306,13.251ZM18.367,1.927a1.156,1.156,0,1,1,1.156,1.156A1.158,1.158,0,0,1,18.367,1.927Z" transform="translate(-10.659)"/>
        </g>
    </g>
</svg>